<svg xmlns="http://www.w3.org/2000/svg" viewBox="0 0 200 200" role="img" aria-labelledby="t d">
  <title id="t">Accompagnements vus de dessus</title>
  <desc id="d">Illustration bichrome : trois bols d'accompagnements, tranches de plantain, riz et boule de fufu.</desc>

  <rect width="200" height="200" fill="#EFE6D4"/>
  <circle cx="58" cy="72" r="40" fill="#1B2A4A"/>
  <circle cx="58" cy="72" r="34" fill="#F7F1E6"/>
  <circle cx="142" cy="72" r="40" fill="#1B2A4A"/>
  <circle cx="142" cy="72" r="34" fill="#F7F1E6"/>
  <circle cx="100" cy="142" r="44" fill="#1B2A4A"/>
  <circle cx="100" cy="142" r="38" fill="#F7F1E6"/>
  <ellipse cx="46" cy="62" rx="11" ry="7.5" fill="#C89B3C" transform="rotate(-25 46 62)"/>
  <ellipse cx="62" cy="58" rx="11" ry="7.5" fill="#C89B3C" transform="rotate(-7 62 58)"/>
  <ellipse cx="54" cy="78" rx="11" ry="7.5" fill="#C89B3C" transform="rotate(11 54 78)"/>
  <ellipse cx="70" cy="76" rx="11" ry="7.5" fill="#C89B3C" transform="rotate(29 70 76)"/>
  <ellipse cx="151.0" cy="72.0" rx="5" ry="2.6" fill="#A87F28" transform="rotate(0 151.0 72.0)"/>
  <ellipse cx="156.4" cy="78.9" rx="5" ry="2.6" fill="#A87F28" transform="rotate(26 156.4 78.9)"/>
  <ellipse cx="156.3" cy="90.0" rx="5" ry="2.6" fill="#A87F28" transform="rotate(52 156.3 90.0)"/>
  <ellipse cx="144.0" cy="80.8" rx="5" ry="2.6" fill="#A87F28" transform="rotate(78 144.0 80.8)"/>
  <ellipse cx="138.4" cy="87.6" rx="5" ry="2.6" fill="#A87F28" transform="rotate(104 138.4 87.6)"/>
  <ellipse cx="127.7" cy="90.0" rx="5" ry="2.6" fill="#A87F28" transform="rotate(130 127.7 90.0)"/>
  <ellipse cx="133.9" cy="75.9" rx="5" ry="2.6" fill="#A87F28" transform="rotate(156 133.9 75.9)"/>
  <ellipse cx="126.0" cy="72.0" rx="5" ry="2.6" fill="#A87F28" transform="rotate(182 126.0 72.0)"/>
  <ellipse cx="121.3" cy="62.0" rx="5" ry="2.6" fill="#A87F28" transform="rotate(208 121.3 62.0)"/>
  <ellipse cx="136.4" cy="65.0" rx="5" ry="2.6" fill="#A87F28" transform="rotate(234 136.4 65.0)"/>
  <ellipse cx="138.4" cy="56.4" rx="5" ry="2.6" fill="#A87F28" transform="rotate(260 138.4 56.4)"/>
  <ellipse cx="147.1" cy="49.6" rx="5" ry="2.6" fill="#A87F28" transform="rotate(286 147.1 49.6)"/>
  <ellipse cx="147.6" cy="65.0" rx="5" ry="2.6" fill="#A87F28" transform="rotate(312 147.6 65.0)"/>
  <ellipse cx="156.4" cy="65.1" rx="5" ry="2.6" fill="#A87F28" transform="rotate(338 156.4 65.1)"/>
  <circle cx="100" cy="142" r="24" fill="#F7F1E6"/>
  <circle cx="100" cy="142" r="24" fill="none" stroke="#C89B3C" stroke-width="3"/>
  <circle cx="92" cy="134" r="6" fill="#EFE6D4"/>
</svg>
